<svg width="37" height="37" viewBox="0 0 37 37" fill="none" xmlns="http://www.w3.org/2000/svg">
<path fill-rule="evenodd" clip-rule="evenodd" d="M6.25 0.5C2.93629 0.5 0.25 3.18629 0.25 6.5V31C0.25 34.1136 2.6217 36.6733 5.65709 36.9711V36.9998H6.20263C6.21841 36.9999 6.2342 37 6.25 37H30.75C34.0637 37 36.75 34.3137 36.75 31V6.5C36.75 3.18629 34.0637 0.5 30.75 0.5H6.25ZM6.20263 36.9998H16.4719V20.7776H5.65709V36.9711C5.83673 36.9887 6.01869 36.9984 6.20263 36.9998ZM27.2868 16.7224C30.2732 16.7224 32.6942 14.3014 32.6942 11.315C32.6942 8.32859 30.2732 5.90761 27.2868 5.90761H21.8794V11.315V16.7224H27.2868ZM11.0645 16.7225C14.0509 16.7225 16.4719 14.3016 16.4719 11.3151C16.4719 8.32869 14.0509 5.90771 11.0645 5.90771H5.6571V11.3151V16.7225H11.0645ZM27.2868 31.5924C30.2732 31.5924 32.6942 29.1714 32.6942 26.185C32.6942 23.1986 30.2732 20.7776 27.2868 20.7776H21.8794V26.185V31.5924H27.2868Z" fill="#BCAC8B"/>
</svg>
